<svg width="90" height="72" viewBox="0 0 90 72" fill="none" xmlns="http://www.w3.org/2000/svg">
<path d="M48.8303 0L77 48H20.5L48.8303 0Z" fill="white"/>
<path d="M24.5512 23.4419L39 48H10L24.5512 23.4419Z" fill="white"/>
<path d="M66.5 48L59.3443 25.1934L73 48L66.5 48Z" fill="#000912"/>
<path d="M15.3959 48L23.5138 29.1123L12.3555 48L15.3959 48Z" fill="#000912"/>
<path d="M31.95 48L45 16L27 48L31.95 48Z" fill="#000912"/>
<path d="M22.2219 63.8266H21.097L20.1777 61.42H16.5006L15.6357 63.8266H14.5048L17.8311 55.2421H18.8835L22.2219 63.8266ZM19.8451 60.5161L18.4843 56.8584C18.44 56.7387 18.3956 56.5471 18.3513 56.2837H18.3271C18.2867 56.5272 18.2404 56.7187 18.188 56.8584L16.8393 60.5161H19.8451Z" fill="white"/>
<path d="M24.3629 63.8266H23.3711V51.907H24.3629V63.8266Z" fill="white"/>
<path d="M31.3483 61.007H26.9756C26.9918 61.6894 27.1772 62.2162 27.532 62.5874C27.8869 62.9585 28.3747 63.1441 28.9957 63.1441C29.6932 63.1441 30.3343 62.9166 30.9189 62.4617V63.3836C30.3746 63.7747 29.6549 63.9702 28.7598 63.9702C27.8848 63.9702 27.1974 63.6929 26.6974 63.1381C26.1975 62.5794 25.9475 61.7952 25.9475 60.7855C25.9475 59.8316 26.2196 59.0554 26.764 58.4568C27.3123 57.8541 27.9917 57.5528 28.8021 57.5528C29.6125 57.5528 30.2395 57.8122 30.683 58.3311C31.1265 58.8499 31.3483 59.5702 31.3483 60.4921V61.007ZM30.3323 60.1749C30.3282 59.6082 30.1891 59.1672 29.9149 58.8519C29.6448 58.5366 29.2678 58.3789 28.784 58.3789C28.3163 58.3789 27.9191 58.5446 27.5925 58.8758C27.2659 59.2071 27.0643 59.6401 26.9877 60.1749H30.3323Z" fill="white"/>
<path d="M37.995 63.8266H37.0031V60.3305C37.0031 59.0295 36.5233 58.3789 35.5637 58.3789C35.0678 58.3789 34.6565 58.5645 34.3299 58.9357C34.0074 59.3028 33.8461 59.7678 33.8461 60.3305V63.8266H32.8542V57.6965H33.8461V58.7142H33.8703C34.338 57.9399 35.0154 57.5528 35.9024 57.5528C36.5798 57.5528 37.0979 57.7703 37.4567 58.2053C37.8156 58.6364 37.995 59.2609 37.995 60.0791V63.8266Z" fill="white"/>
<path d="M45.6215 68.7793C45.6215 69.797 45.4037 70.5892 44.9683 71.1559C44.5328 71.7186 43.9502 72 43.2204 72C42.8818 72 42.6035 71.9521 42.3858 71.8563V70.8626C42.6035 71.0182 42.8858 71.0961 43.2325 71.0961C44.1478 71.0961 44.6054 70.3278 44.6054 68.7913V51.907H45.6215V68.7793Z" fill="white"/>
<path d="M52.1291 63.8266H51.1372V62.8687H51.113C50.6816 63.6031 50.0466 63.9702 49.2079 63.9702C48.591 63.9702 48.1072 63.8086 47.7564 63.4853C47.4097 63.1621 47.2363 62.7331 47.2363 62.1983C47.2363 61.0529 47.9177 60.3864 49.2805 60.1988L51.1372 59.9414C51.1372 58.8998 50.7118 58.3789 49.8611 58.3789C49.1152 58.3789 48.4418 58.6304 47.8411 59.1332V58.1275C48.4499 57.7444 49.1515 57.5528 49.9458 57.5528C51.4013 57.5528 52.1291 58.3151 52.1291 59.8396V63.8266ZM51.1372 60.7256L49.6434 60.9292C49.1837 60.993 48.837 61.1068 48.6031 61.2704C48.3693 61.43 48.2523 61.7154 48.2523 62.1264C48.2523 62.4258 48.3592 62.6712 48.5729 62.8628C48.7906 63.0503 49.0789 63.1441 49.4377 63.1441C49.9296 63.1441 50.3348 62.9745 50.6534 62.6353C50.9759 62.2921 51.1372 61.859 51.1372 61.3362V60.7256Z" fill="white"/>
<path d="M59.1386 63.8266H57.7476L55.0139 60.8813H54.9898V63.8266H53.9979V51.907H54.9898V60.5041H55.0139L57.6146 57.6965H58.9149L56.0421 60.6538L59.1386 63.8266Z" fill="white"/>
<path d="M62.7432 63.9702C61.828 63.9702 61.0962 63.6849 60.5478 63.1142C60.0035 62.5395 59.7313 61.7792 59.7313 60.8334C59.7313 59.8037 60.0156 58.9995 60.5841 58.4209C61.1526 57.8422 61.9207 57.5528 62.8884 57.5528C63.8117 57.5528 64.5314 57.8342 65.0475 58.3969C65.5676 58.9596 65.8277 59.7399 65.8277 60.7376C65.8277 61.7154 65.5475 62.4996 64.987 63.0902C64.4306 63.6769 63.6827 63.9702 62.7432 63.9702ZM62.8158 58.3789C62.1788 58.3789 61.6748 58.5945 61.3038 59.0255C60.9329 59.4525 60.7474 60.0432 60.7474 60.7975C60.7474 61.5238 60.9349 62.0965 61.3099 62.5156C61.6848 62.9346 62.1868 63.1441 62.8158 63.1441C63.4569 63.1441 63.9488 62.9386 64.2915 62.5275C64.6383 62.1165 64.8116 61.5318 64.8116 60.7735C64.8116 60.0072 64.6383 59.4166 64.2915 59.0015C63.9488 58.5865 63.4569 58.3789 62.8158 58.3789Z" fill="white"/>
<path d="M68.4283 62.9406H68.4041V63.8266H67.4122V51.907H68.4041V58.774H68.4283C68.9162 57.9599 69.6298 57.5528 70.5693 57.5528C71.3636 57.5528 71.9845 57.8282 72.432 58.3789C72.8836 58.9257 73.1094 59.66 73.1094 60.5819C73.1094 61.6076 72.8574 62.4297 72.3534 63.0483C71.8494 63.6629 71.16 63.9702 70.285 63.9702C69.4665 63.9702 68.8476 63.627 68.4283 62.9406ZM68.4041 60.4682V61.3243C68.4041 61.8311 68.5694 62.2621 68.9 62.6173C69.2347 62.9685 69.6581 63.1441 70.1701 63.1441C70.7709 63.1441 71.2406 62.9166 71.5793 62.4617C71.922 62.0067 72.0934 61.3741 72.0934 60.564C72.0934 59.8815 71.9341 59.3467 71.6156 58.9596C71.297 58.5725 70.8656 58.3789 70.3213 58.3789C69.7447 58.3789 69.2811 58.5785 68.9303 58.9776C68.5795 59.3727 68.4041 59.8696 68.4041 60.4682Z" fill="white"/>
<path fill-rule="evenodd" clip-rule="evenodd" d="M39.1021 68.3019L2.4654 68.3019L0 71.661L39.1021 71.661V68.3019ZM50.6498 71.661L89.5763 71.661L87.1109 68.3019L50.6498 68.3019V71.661Z" fill="white"/>
</svg>
