<svg width="860" height="159" viewBox="0 0 860 159" fill="none" xmlns="http://www.w3.org/2000/svg">
<path d="M473.038 46.3997L446.254 1.54716L499.822 1.54714L473.038 46.3997Z" fill="white"/>
<path d="M473.038 46.3997L446.254 1.54716L499.822 1.54714L473.038 46.3997Z" fill="white"/>
<path d="M833.216 46.3996L806.432 1.54705H860L833.216 46.3996Z" fill="white"/>
<path d="M833.216 46.3996L806.432 1.54705H860L833.216 46.3996Z" fill="white"/>
<path d="M487.17 1.75581L478.735 23.7149L489.982 1.75581H487.17Z" fill="white"/>
<path d="M487.17 1.75581L478.735 23.7149L489.982 1.75581H487.17Z" fill="white"/>
<path d="M430.001 80.039V1.54702H477.33L430.001 80.039Z" fill="white"/>
<path d="M430.001 80.039V1.54702H477.33L430.001 80.039Z" fill="white"/>
<path d="M458.468 1.54702L438.436 46.3996L465.146 1.54702H458.468Z" fill="white"/>
<path d="M458.468 1.54702L438.436 46.3996L465.146 1.54702H458.468Z" fill="white"/>
<path d="M747.699 99.9017L688.965 1.54709L806.432 1.54705L747.699 99.9017Z" fill="white"/>
<path d="M747.699 99.9017L688.965 1.54709L806.432 1.54705L747.699 99.9017Z" fill="white"/>
<path d="M778.687 2.00467L760.191 50.1574L784.853 2.00467H778.687Z" fill="white"/>
<path d="M778.687 2.00467L760.191 50.1574L784.853 2.00467H778.687Z" fill="white"/>
<path d="M653.325 158.472V1.60616L748.357 1.60614L653.325 158.472Z" fill="white"/>
<path d="M653.325 158.472V1.60616L748.357 1.60614L653.325 158.472Z" fill="white"/>
<path d="M558.626 99.9441L617.561 1.25035L499.69 1.25036L558.626 99.9441Z" fill="white"/>
<path d="M558.626 99.9441L617.561 1.25035L499.69 1.25036L558.626 99.9441Z" fill="white"/>
<path d="M653.325 158.998V1.07983L558.293 1.07984L653.325 158.998Z" fill="white"/>
<path d="M653.325 158.998V1.07983L558.293 1.07984L653.325 158.998Z" fill="white"/>
<path d="M590.685 1.2502L634.765 99.944L575.992 1.2502H590.685Z" fill="white"/>
<path d="M590.685 1.2502L634.765 99.944L575.992 1.2502H590.685Z" fill="white"/>
<path d="M849.592 1.60623L836.525 35.2955L853.948 1.60623H849.592Z" fill="white"/>
<path d="M849.592 1.60623L836.525 35.2955L853.948 1.60623H849.592Z" fill="white"/>
<path d="M527.53 1.70943L546.09 50.0283L521.343 1.70943H527.53Z" fill="white"/>
<path d="M527.53 1.70943L546.09 50.0283L521.343 1.70943H527.53Z" fill="white"/>
<path d="M715.75 1.54713L671.821 99.9017L730.393 1.54713H715.75Z" fill="white"/>
<path d="M715.75 1.54713L671.821 99.9017L730.393 1.54713H715.75Z" fill="white"/>
<path d="M386.964 46.3416L413.748 1.46587L360.18 1.46585L386.964 46.3416Z" fill="white"/>
<path d="M386.964 46.3416L413.748 1.46587L360.18 1.46585L386.964 46.3416Z" fill="white"/>
<path d="M26.7842 46.3415L53.5684 1.46576H0L26.7842 46.3415Z" fill="white"/>
<path d="M26.7842 46.3415L53.5684 1.46576H0L26.7842 46.3415Z" fill="white"/>
<path d="M372.832 1.67462L381.267 23.645L370.02 1.67462H372.832Z" fill="white"/>
<path d="M372.832 1.67462L381.267 23.645L370.02 1.67462H372.832Z" fill="white"/>
<path d="M430.001 79.9983V1.46573H382.672L430.001 79.9983Z" fill="white"/>
<path d="M430.001 79.9983V1.46573H382.672L430.001 79.9983Z" fill="white"/>
<path d="M401.534 1.46573L421.566 46.3415L394.856 1.46573H401.534Z" fill="white"/>
<path d="M401.534 1.46573L421.566 46.3415L394.856 1.46573H401.534Z" fill="white"/>
<path d="M112.302 99.8712L171.035 1.4658L53.5684 1.46576L112.302 99.8712Z" fill="white"/>
<path d="M112.302 99.8712L171.035 1.4658L53.5684 1.46576L112.302 99.8712Z" fill="white"/>
<path d="M81.3131 1.92362L99.8094 50.1013L75.1477 1.92362H81.3131Z" fill="white"/>
<path d="M81.3131 1.92362L99.8094 50.1013L75.1477 1.92362H81.3131Z" fill="white"/>
<path d="M206.676 158.472L206.676 1.52489L111.644 1.52488L206.676 158.472Z" fill="white"/>
<path d="M206.676 158.472L206.676 1.52489L111.644 1.52488L206.676 158.472Z" fill="white"/>
<path d="M301.376 99.9136L242.44 1.1689L360.312 1.16892L301.376 99.9136Z" fill="white"/>
<path d="M301.376 99.9136L242.44 1.1689L360.312 1.16892L301.376 99.9136Z" fill="white"/>
<path d="M206.676 158.998L206.676 0.998291L301.709 0.998305L206.676 158.998Z" fill="white"/>
<path d="M206.676 158.998L206.676 0.998291L301.709 0.998305L206.676 158.998Z" fill="white"/>
<path d="M269.316 1.16875L225.236 99.9135L284.01 1.16875H269.316Z" fill="white"/>
<path d="M269.316 1.16875L225.236 99.9135L284.01 1.16875H269.316Z" fill="white"/>
<path d="M10.4078 1.52496L23.4747 35.2316L6.05213 1.52496H10.4078Z" fill="white"/>
<path d="M10.4078 1.52496L23.4747 35.2316L6.05213 1.52496H10.4078Z" fill="white"/>
<path d="M332.472 1.62822L313.912 49.972L338.658 1.62822H332.472Z" fill="white"/>
<path d="M332.472 1.62822L313.912 49.972L338.658 1.62822H332.472Z" fill="white"/>
<path d="M144.251 1.46584L188.18 99.8712L129.608 1.46584H144.251Z" fill="white"/>
<path d="M144.251 1.46584L188.18 99.8712L129.608 1.46584H144.251Z" fill="white"/>
</svg>
