<svg width="483" height="178" viewBox="0 0 483 178" fill="none" xmlns="http://www.w3.org/2000/svg">
<g opacity="0.2">
<path d="M48.3415 126.852L18.2562 177.382L78.4268 177.382L48.3415 126.852Z" fill="white"/>
<path d="M452.912 126.852L422.827 177.382L482.998 177.382L452.912 126.852Z" fill="white"/>
<path d="M0.000203371 88.9541L0.00019564 177.382L53.1621 177.382L0.000203371 88.9541Z" fill="white"/>
</g>
<g opacity="0.2">
<path d="M356.855 66.5771L290.883 177.382L422.827 177.382L356.855 66.5771Z" fill="white"/>
<path d="M250.849 0.593008L250.849 177.315L357.594 177.315L250.849 0.593008Z" fill="white"/>
</g>
<g opacity="0.2">
<path d="M144.478 66.5293L210.678 177.716L78.2783 177.716L144.478 66.5293Z" fill="white"/>
<path d="M250.849 9.33194e-06L250.849 177.908L144.104 177.908L250.849 9.33194e-06Z" fill="white"/>
</g>
<path d="M471.307 177.315L456.629 139.361L476.199 177.315L471.307 177.315Z" fill="white"/>
<path d="M109.549 177.199L130.397 122.764L102.6 177.199L109.549 177.199Z" fill="white"/>
<path d="M320.968 177.382L271.625 66.5771L337.416 177.382L320.968 177.382Z" fill="white"/>
<path d="M64.2151 177.147L54.7407 152.408L67.3733 177.147L64.2151 177.147Z" fill="white" fill-opacity="0.3"/>
<path d="M31.9763 177.382L9.47461 126.852L39.4769 177.382L31.9763 177.382Z" fill="white" fill-opacity="0.3"/>
<path d="M391.663 176.866L370.887 122.618L398.588 176.866L391.663 176.866Z" fill="white" fill-opacity="0.3"/>
<path d="M180.489 177.716L230.002 66.5295L163.985 177.716L180.489 177.716Z" fill="white" fill-opacity="0.3"/>
</svg>
