<svg width="483" height="176" viewBox="0 0 483 176" fill="none" xmlns="http://www.w3.org/2000/svg">
<g opacity="0.2">
<path d="M48 125L18 176L78 176L48 125Z" fill="white"/>
<path d="M453 127L423 176L483 176L453 127Z" fill="white"/>
<path d="M64 176L55 152L67 176L64 176Z" fill="#327CC0"/>
<path d="M9.77516e-06 89L2.16938e-06 176L53 176L9.77516e-06 89Z" fill="white"/>
<path d="M31.5 176L9 127L39 176L31.5 176Z" fill="#327CC0"/>
</g>
<g opacity="0.2">
<path d="M356.855 66.3839L290.882 176L422.827 176L356.855 66.3839Z" fill="white"/>
<path d="M392 176L371 121L399 176L392 176Z" fill="#327CC0"/>
<path d="M251 0.999991L251 176L358 176L251 0.999991Z" fill="white"/>
</g>
<g opacity="0.2">
<path d="M144.558 66L211.116 176L78 176L144.558 66Z" fill="white"/>
<path d="M251 9.2399e-06L251 176L144.162 176L251 9.2399e-06Z" fill="white"/>
<path d="M180.589 176L230.133 64L164.075 176L180.589 176Z" fill="#327CC0"/>
</g>
<path d="M471.25 176L457 139L476 176L471.25 176Z" fill="#327CC0"/>
<path d="M109.25 176L131 121L102 176L109.25 176Z" fill="#327CC0"/>
<path d="M320.75 176L272 65L337 176L320.75 176Z" fill="#327CC0"/>
</svg>
