<svg width="860" height="158" viewBox="0 0 860 158" fill="none" xmlns="http://www.w3.org/2000/svg">
<path d="M473.038 44.8835L446.254 0.00800007L499.822 0.00798862L473.038 44.8835Z" fill="white"/>
<path d="M473.038 44.8835L446.254 0.00800007L499.822 0.00798862L473.038 44.8835Z" fill="white"/>
<path d="M833.216 45.4239L806.432 3.74566e-07H860L833.216 45.4239Z" fill="white"/>
<path d="M833.216 45.4239L806.432 3.74566e-07H860L833.216 45.4239Z" fill="white"/>
<path d="M430.001 78.5401V0.00800007H477.33L430.001 78.5401Z" fill="white"/>
<path d="M430.001 78.5401V0.00800007H477.33L430.001 78.5401Z" fill="white"/>
<path d="M747.699 98.4049L688.965 4.04494e-05L806.432 3.74566e-07L747.699 98.4049Z" fill="white"/>
<path d="M747.699 98.4049L688.965 4.04494e-05L806.432 3.74566e-07L747.699 98.4049Z" fill="white"/>
<path d="M653.244 157.999L652.718 3.74566e-07L747.75 -1.29837e-05L653.244 157.999Z" fill="white"/>
<path d="M653.244 157.999L652.718 3.74566e-07L747.75 -1.29837e-05L653.244 157.999Z" fill="white"/>
<path d="M558.877 98.7442L617.813 3.74566e-07L499.941 1.56412e-05L558.877 98.7442Z" fill="white"/>
<path d="M558.877 98.7442L617.813 3.74566e-07L499.941 1.56412e-05L558.877 98.7442Z" fill="white"/>
<path d="M653.244 157.999V3.74566e-07L558.212 1.37328e-05L653.244 157.999Z" fill="white"/>
<path d="M653.244 157.999V3.74566e-07L558.212 1.37328e-05L653.244 157.999Z" fill="white"/>
<path d="M386.964 45.023L413.742 3.74566e-07H360L386.964 45.023Z" fill="white"/>
<path d="M386.964 45.023L413.742 3.74566e-07H360L386.964 45.023Z" fill="white"/>
<path d="M26.7842 45.3657L53.5684 -0.000719064L0 0.466986L26.7842 45.3657Z" fill="white"/>
<path d="M26.7842 45.3657L53.5684 -0.000719064L0 0.466986L26.7842 45.3657Z" fill="white"/>
<path d="M430.021 78.5728V6.14409e-05H382.692L430.021 78.5728Z" fill="white"/>
<path d="M430.021 78.5728V6.14409e-05H382.692L430.021 78.5728Z" fill="white"/>
<path d="M112.302 98.455L171.035 -0.000678035L53.5684 -0.000719064L112.302 98.455Z" fill="white"/>
<path d="M112.302 98.455L171.035 -0.000678035L53.5684 -0.000719064L112.302 98.455Z" fill="white"/>
<path d="M206.676 157.026L206 -0.000719064L111.644 -0.000732422L206.676 157.026Z" fill="white"/>
<path d="M206.676 157.026L206 -0.000719064L111.644 -0.000732422L206.676 157.026Z" fill="white"/>
<path d="M301.376 98.9652L242.44 0.169979L360.5 3.74566e-07L301.376 98.9652Z" fill="white"/>
<path d="M301.376 98.9652L242.44 0.169979L360.5 3.74566e-07L301.376 98.9652Z" fill="white"/>
<path d="M206.676 157.026L206 -0.000719064L301.032 -0.000705705L206.676 157.026Z" fill="white"/>
<path d="M206.676 157.026L206 -0.000719064L301.032 -0.000705705L206.676 157.026Z" fill="white"/>
</svg>
